# xmcd CD database file
#
# Track frame offsets:
#	150
#	17199
#	30783
#
# Disc length: 635 seconds
#
# Revision: 2
# Processed by: cddbd v1.5.2PL0 Copyright (c) Steve Scherf et al.
# Submitted via: CDex 1.70beta2
#
DISCID=14027903
DTITLE=Berryz工房 - 笑っちゃおうよ BOYFRIEND
DYEAR=2006
DGENRE=JPop
TTITLE0=笑っちゃおうよ BOYFRIEND
TTITLE1=素肌ピチピチ
TTITLE2=笑っちゃおうよ BOYFRIEND（Instrumental）
EXTD=YEAR: 2006
EXTT0=
EXTT1=
EXTT2=
PLAYORDER=
